<svg xmlns="http://www.w3.org/2000/svg" xmlns:xlink="http://www.w3.org/1999/xlink" id="terminal" baseProfile="full" viewBox="0 0 800 427" width="800" version="1.1">
    <defs>
        <termtosvg:template_settings xmlns:termtosvg="https://github.com/nbedos/termtosvg">
            <termtosvg:screen_geometry columns="100" rows="25"/>
            <termtosvg:animation type="css"/>
        </termtosvg:template_settings>
        <style type="text/css" id="generated-style"><![CDATA[#screen {
                font-family: 'DejaVu Sans Mono', monospace;
                font-style: normal;
                font-size: 14px;
            }

        text {
            dominant-baseline: text-before-edge;
            white-space: pre;
        }
    
            :root {
                --animation-duration: 9220ms;
            }

            @keyframes roll {
                0.000%{transform:translateY(0px)}
0.239%{transform:translateY(-442px)}
0.553%{transform:translateY(-884px)}
1.486%{transform:translateY(-1326px)}
14.620%{transform:translateY(-1768px)}
20.163%{transform:translateY(-2210px)}
22.701%{transform:translateY(-2652px)}
24.165%{transform:translateY(-3094px)}
25.477%{transform:translateY(-3536px)}
34.338%{transform:translateY(-3978px)}
50.130%{transform:translateY(-4420px)}
50.163%{transform:translateY(-4862px)}
89.024%{transform:translateY(-5304px)}
89.154%{transform:translateY(-5746px)}
100.000%{transform:translateY(-5746px)}
            }

            #screen_view {
                animation-duration: 9220ms;
                animation-iteration-count:infinite;
                animation-name:roll;
                animation-timing-function: steps(1,end);
                animation-fill-mode: forwards;
            }
        ]]></style>
        <style type="text/css" id="user-style">
            /* The colors defined below are the default 16 colors used for rendering text of the terminal. Adjust
               them as needed.
               PowerShell colors based on https://en.wikipedia.org/wiki/ANSI_escape_code#Colors */
            .foreground {fill: #cccccc;}
            .background {fill: #0c0c0c;}
            .color0 {fill: #0c0c0c;}
            .color1 {fill: #c50f1f;}
            .color2 {fill: #13a10e;}
            .color3 {fill: #c19c00;}
            .color4 {fill: #0037da;}
            .color5 {fill: #881798;}
            .color6 {fill: #3a96dd;}
            .color7 {fill: #cccccc;}
            .color8 {fill: #767676;}
            .color9 {fill: #e74856;}
            .color10 {fill: #16c60c;}
            .color11 {fill: #f9f1a5;}
            .color12 {fill: #3b78ff;}
            .color13 {fill: #b4009e;}
            .color14 {fill: #61d6d6;}
            .color15 {fill: #f2f2f2;}
        </style>
    </defs>
    <svg id="screen" width="800" height="425" viewBox="0 0 800 425" preserveAspectRatio="xMidYMin slice">
    <rect class="background" height="100%" width="100%" x="0" y="0"/><defs><g id="g1"><text x="0" textLength="8" class="background"> </text></g><g id="g2"><text x="0" textLength="8" class="background"> </text><text x="8" textLength="792" class="foreground">                                                                                                   </text></g><g id="g3"><text x="0" textLength="800" fill="#ffd7af">Nunc         habeo        feugiat               albucius                                            </text></g><g id="g4"><text x="0" textLength="800" fill="#ffd7af">Quo     lorem                      pro                                                              </text></g><g id="g5"><text x="0" textLength="800" fill="#ffd7af">Nibh integre eros debet dicta.                                                                      </text></g><g id="g6"><text x="0" textLength="800" fill="#4e4e4e">~                                                                                                   </text></g><g id="g7"><text x="0" textLength="800" fill="#ffd7af">/tmp/nonsense                                                                     3,9            All</text></g><g id="g8"><text x="0" textLength="800" fill="#ffd7af">                                                                                                    </text></g><g id="g9"><text x="0" textLength="8" fill="#ffd7af">:</text><text x="8" textLength="8" fill="#262626"> </text><text x="16" textLength="784" fill="#ffd7af">                                                                                                  </text></g><g id="g10"><text x="0" textLength="16" fill="#ffd7af">:P</text><text x="16" textLength="8" fill="#262626"> </text><text x="24" textLength="776" fill="#ffd7af">                                                                                                 </text></g><g id="g11"><text x="0" textLength="24" fill="#ffd7af">:Pu</text><text x="24" textLength="8" fill="#262626"> </text><text x="32" textLength="768" fill="#ffd7af">                                                                                                </text></g><g id="g12"><text x="0" textLength="32" fill="#ffd7af">:Pus</text><text x="32" textLength="8" fill="#262626"> </text><text x="40" textLength="760" fill="#ffd7af">                                                                                               </text></g><g id="g13"><text x="0" textLength="40" fill="#ffd7af">:Push</text><text x="40" textLength="8" fill="#262626"> </text><text x="48" textLength="752" fill="#ffd7af">                                                                                              </text></g><g id="g14"><text x="0" textLength="72" fill="#ffd7af">:PushHelp</text><text x="72" textLength="8" fill="#262626"> </text><text x="80" textLength="720" fill="#ffd7af">                                                                                          </text></g><g id="g15"><text x="0" textLength="136" fill="#ffd7af">Quo     lorem    </text><text x="136" textLength="504" fill="#d7d7af">&#9484;&#9472;&#9472;&#9472;&#9472;&#9472;&#9472;&#9472;&#9472;&#9472;&#9472;&#9472;&#9472;&#9472;&#9472;&#9472;&#9472;&#9472;&#9472;&#9472;&#9472;&#9472;&#9472;&#9472;&#9472;&#9472;&#9472;&#9472;&#9472;&#9472;&#9472;&#9472;&#9472;&#9472;&#9472;&#9472;&#9472;&#9472;&#9472;&#9472;&#9472;&#9472;&#9472;&#9472;&#9472;&#9472;&#9472;&#9472;&#9472;&#9472;&#9472;&#9472;&#9472;&#9472;&#9472;&#9472;&#9472;&#9472;&#9472;&#9472;&#9472;&#9472;X</text><text x="640" textLength="160" fill="#ffd7af">                    </text></g><g id="g16"><text x="0" textLength="136" fill="#ffd7af">Nibh integre eros</text><text x="136" textLength="40" fill="#d7d7af">&#9474;See </text><text x="176" textLength="80" font-style="italic" fill="#8a8a8a">:help push</text><text x="256" textLength="384" fill="#d7d7af"> for more details and the hardcoded defaults.  &#9474;</text><text x="640" textLength="160" fill="#ffd7af">                    </text></g><g id="g17"><text x="0" textLength="136" fill="#4e4e4e">~                </text><text x="136" textLength="504" fill="#d7d7af">&#9474;                                                             &#9474;</text><text x="640" textLength="160" fill="#4e4e4e">                    </text></g><g id="g18"><text x="0" textLength="136" fill="#4e4e4e">~                </text><text x="136" textLength="504" fill="#d7d7af">&#9474;MAPPINGS                                                     &#9474;</text><text x="640" textLength="160" fill="#4e4e4e">                    </text></g><g id="g19"><text x="0" textLength="136" fill="#4e4e4e">~                </text><text x="136" textLength="48" fill="#d7d7af">&#9474;  i  </text><text x="184" textLength="56" fill="#afaf00">&lt;S-Tab&gt;</text><text x="240" textLength="16" fill="#d7d7af">  </text><text x="256" textLength="48" fill="#ff8700">&lt;Plug&gt;</text><text x="304" textLength="336" fill="#d7d7af">(PushFarthest)                           &#9474;</text><text x="640" textLength="160" fill="#4e4e4e">                    </text></g><g id="g20"><text x="0" textLength="136" fill="#4e4e4e">~                </text><text x="136" textLength="48" fill="#d7d7af">&#9474;  n  </text><text x="184" textLength="56" fill="#afaf00">&lt;S-Tab&gt;</text><text x="240" textLength="16" fill="#d7d7af">  </text><text x="256" textLength="48" fill="#ff8700">&lt;Plug&gt;</text><text x="304" textLength="336" fill="#d7d7af">(PushFarthest)                           &#9474;</text><text x="640" textLength="160" fill="#4e4e4e">                    </text></g><g id="g21"><text x="0" textLength="136" fill="#4e4e4e">~                </text><text x="136" textLength="48" fill="#d7d7af">&#9474;  i  </text><text x="184" textLength="40" fill="#afaf00">&lt;Tab&gt;</text><text x="224" textLength="416" fill="#d7d7af">                                                   &#9474;</text><text x="640" textLength="160" fill="#4e4e4e">                    </text></g><g id="g22"><text x="0" textLength="136" fill="#4e4e4e">~                </text><text x="136" textLength="504" fill="#d7d7af">&#9492;&#9472;&#9472;&#9472;&#9472;&#9472;&#9472;&#9472;&#9472;&#9472;&#9472;&#9472;&#9472;&#9472;&#9472;&#9472;&#9472;&#9472;&#9472;&#9472;&#9472;&#9472;&#9472;&#9472;&#9472;&#9472;&#9472;&#9472;&#9472;&#9472;&#9472;&#9472;&#9472;&#9472;&#9472;&#9472;&#9472;&#9472;&#9472;&#9472;&#9472;&#9472;&#9472;&#9472;&#9472;&#9472;&#9472;&#9472;&#9472;&#9472;&#9472;&#9472;&#9472;&#9472;&#9472;&#9472;&#9472;&#9472;&#9472;&#9472;&#9472;&#9472;&#9496;</text><text x="640" textLength="160" fill="#4e4e4e">                    </text></g><g id="g23"><text x="0" textLength="800" fill="#ffd7af">:PushHelp                                                                                           </text></g><g id="g24"><text x="0" textLength="136" fill="#4e4e4e">~                </text><text x="136" textLength="48" fill="#d7d7af">&#9474;  i  </text><text x="184" textLength="40" fill="#afaf00">&lt;Tab&gt;</text><text x="224" textLength="32" fill="#d7d7af">    </text><text x="256" textLength="48" fill="#ff8700">&lt;Plug&gt;</text><text x="304" textLength="336" fill="#d7d7af">(PushToNext)                             &#9474;</text><text x="640" textLength="160" fill="#4e4e4e">                    </text></g><g id="g25"><text x="0" textLength="136" fill="#4e4e4e">~                </text><text x="136" textLength="48" fill="#d7d7af">&#9474;  n  </text><text x="184" textLength="40" fill="#afaf00">&lt;Tab&gt;</text><text x="224" textLength="32" fill="#d7d7af">    </text><text x="256" textLength="48" fill="#ff8700">&lt;Plug&gt;</text><text x="304" textLength="336" fill="#d7d7af">(PushToNext)                             &#9474;</text><text x="640" textLength="160" fill="#4e4e4e">                    </text></g><g id="g26"><text x="0" textLength="136" fill="#4e4e4e">~                </text><text x="136" textLength="504" fill="#d7d7af">&#9474;SETTINGS                                                     &#9474;</text><text x="640" textLength="160" fill="#4e4e4e">                    </text></g><g id="g27"><text x="0" textLength="136" fill="#4e4e4e">~                </text><text x="136" textLength="8" fill="#d7d7af">&#9474;</text><text x="144" textLength="16" fill="#d75f5f">  </text><text x="160" textLength="208" fill="#afaf00">g:push_no_default_mappings</text><text x="368" textLength="24" fill="#d7d7af"> = </text><text x="392" textLength="56" fill="#ff8700">&lt;unset&gt;</text><text x="448" textLength="192" fill="#d7d7af">                       &#9474;</text><text x="640" textLength="160" fill="#4e4e4e">                    </text></g><g id="g28"><text x="0" textLength="8" fill="#4e4e4e">:</text><text x="8" textLength="792" fill="#ffd7af">PushHelp                                                                                           </text></g><g id="g29"><text x="0" textLength="64" fill="#ffd7af">Nibh int</text><text x="64" textLength="8" fill="#262626">e</text><text x="72" textLength="728" fill="#ffd7af">gre eros debet dicta.                                                                      </text></g><g id="g30"><text x="0" textLength="800" fill="#ffd7af">:PushHelp                                                                                Z          </text></g><g id="g31"><text x="0" textLength="8" class="background">:</text><text x="8" textLength="792" fill="#ffd7af">PushHelp                                                                                ZQ         </text></g></defs><g id="screen_view"><g><rect x="0" y="0" width="8" height="17" class="foreground"/><use xlink:href="#g1" y="0"/></g><g><rect x="0" y="442" width="8" height="17" class="foreground"/><use xlink:href="#g2" y="442"/></g><g><rect x="0" y="884" width="64" height="17" fill="#262626"/><rect x="64" y="884" width="8" height="17" fill="#3a3a3a"/><rect x="72" y="884" width="728" height="17" fill="#262626"/><use xlink:href="#g3" y="884"/><rect x="0" y="901" width="64" height="17" fill="#262626"/><rect x="64" y="901" width="8" height="17" fill="#3a3a3a"/><rect x="72" y="901" width="728" height="17" fill="#262626"/><use xlink:href="#g4" y="901"/><rect x="0" y="918" width="64" height="17" fill="#3a3a3a"/><rect x="64" y="918" width="8" height="17" fill="#4e4e4e"/><rect x="72" y="918" width="728" height="17" fill="#3a3a3a"/><use xlink:href="#g5" y="918"/><rect x="0" y="935" width="800" height="17" fill="#262626"/><use xlink:href="#g6" y="935"/><rect x="0" y="952" width="800" height="17" fill="#262626"/><use xlink:href="#g6" y="952"/><rect x="0" y="969" width="800" height="17" fill="#262626"/><use xlink:href="#g6" y="969"/><rect x="0" y="986" width="800" height="17" fill="#262626"/><use xlink:href="#g6" y="986"/><rect x="0" y="1003" width="800" height="17" fill="#262626"/><use xlink:href="#g6" y="1003"/><rect x="0" y="1020" width="800" height="17" fill="#262626"/><use xlink:href="#g6" y="1020"/><rect x="0" y="1037" width="800" height="17" fill="#262626"/><use xlink:href="#g6" y="1037"/><rect x="0" y="1054" width="800" height="17" fill="#262626"/><use xlink:href="#g6" y="1054"/><rect x="0" y="1071" width="800" height="17" fill="#262626"/><use xlink:href="#g6" y="1071"/><rect x="0" y="1088" width="800" height="17" fill="#262626"/><use xlink:href="#g6" y="1088"/><rect x="0" y="1105" width="800" height="17" fill="#262626"/><use xlink:href="#g6" y="1105"/><rect x="0" y="1122" width="800" height="17" fill="#262626"/><use xlink:href="#g6" y="1122"/><rect x="0" y="1139" width="800" height="17" fill="#262626"/><use xlink:href="#g6" y="1139"/><rect x="0" y="1156" width="800" height="17" fill="#262626"/><use xlink:href="#g6" y="1156"/><rect x="0" y="1173" width="800" height="17" fill="#262626"/><use xlink:href="#g6" y="1173"/><rect x="0" y="1190" width="800" height="17" fill="#262626"/><use xlink:href="#g6" y="1190"/><rect x="0" y="1207" width="800" height="17" fill="#262626"/><use xlink:href="#g6" y="1207"/><rect x="0" y="1224" width="800" height="17" fill="#262626"/><use xlink:href="#g6" y="1224"/><rect x="0" y="1241" width="800" height="17" fill="#262626"/><use xlink:href="#g6" y="1241"/><rect x="0" y="1258" width="800" height="17" fill="#262626"/><use xlink:href="#g6" y="1258"/><rect x="0" y="1275" width="800" height="17" fill="#4e4e4e"/><use xlink:href="#g7" y="1275"/><rect x="0" y="1292" width="800" height="17" fill="#262626"/><use xlink:href="#g8" y="1292"/></g><g><rect x="0" y="1326" width="64" height="17" fill="#262626"/><rect x="64" y="1326" width="8" height="17" fill="#3a3a3a"/><rect x="72" y="1326" width="728" height="17" fill="#262626"/><use xlink:href="#g3" y="1326"/><rect x="0" y="1343" width="64" height="17" fill="#262626"/><rect x="64" y="1343" width="8" height="17" fill="#3a3a3a"/><rect x="72" y="1343" width="728" height="17" fill="#262626"/><use xlink:href="#g4" y="1343"/><rect x="0" y="1360" width="64" height="17" fill="#3a3a3a"/><rect x="64" y="1360" width="8" height="17" fill="#4e4e4e"/><rect x="72" y="1360" width="728" height="17" fill="#3a3a3a"/><use xlink:href="#g5" y="1360"/><rect x="0" y="1377" width="800" height="17" fill="#262626"/><use xlink:href="#g6" y="1377"/><rect x="0" y="1394" width="800" height="17" fill="#262626"/><use xlink:href="#g6" y="1394"/><rect x="0" y="1411" width="800" height="17" fill="#262626"/><use xlink:href="#g6" y="1411"/><rect x="0" y="1428" width="800" height="17" fill="#262626"/><use xlink:href="#g6" y="1428"/><rect x="0" y="1445" width="800" height="17" fill="#262626"/><use xlink:href="#g6" y="1445"/><rect x="0" y="1462" width="800" height="17" fill="#262626"/><use xlink:href="#g6" y="1462"/><rect x="0" y="1479" width="800" height="17" fill="#262626"/><use xlink:href="#g6" y="1479"/><rect x="0" y="1496" width="800" height="17" fill="#262626"/><use xlink:href="#g6" y="1496"/><rect x="0" y="1513" width="800" height="17" fill="#262626"/><use xlink:href="#g6" y="1513"/><rect x="0" y="1530" width="800" height="17" fill="#262626"/><use xlink:href="#g6" y="1530"/><rect x="0" y="1547" width="800" height="17" fill="#262626"/><use xlink:href="#g6" y="1547"/><rect x="0" y="1564" width="800" height="17" fill="#262626"/><use xlink:href="#g6" y="1564"/><rect x="0" y="1581" width="800" height="17" fill="#262626"/><use xlink:href="#g6" y="1581"/><rect x="0" y="1598" width="800" height="17" fill="#262626"/><use xlink:href="#g6" y="1598"/><rect x="0" y="1615" width="800" height="17" fill="#262626"/><use xlink:href="#g6" y="1615"/><rect x="0" y="1632" width="800" height="17" fill="#262626"/><use xlink:href="#g6" y="1632"/><rect x="0" y="1649" width="800" height="17" fill="#262626"/><use xlink:href="#g6" y="1649"/><rect x="0" y="1666" width="800" height="17" fill="#262626"/><use xlink:href="#g6" y="1666"/><rect x="0" y="1683" width="800" height="17" fill="#262626"/><use xlink:href="#g6" y="1683"/><rect x="0" y="1700" width="800" height="17" fill="#262626"/><use xlink:href="#g6" y="1700"/><rect x="0" y="1717" width="800" height="17" fill="#4e4e4e"/><use xlink:href="#g7" y="1717"/><rect x="0" y="1734" width="800" height="17" fill="#262626"/><use xlink:href="#g8" y="1734"/></g><g><rect x="0" y="1768" width="64" height="17" fill="#262626"/><rect x="64" y="1768" width="8" height="17" fill="#3a3a3a"/><rect x="72" y="1768" width="728" height="17" fill="#262626"/><use xlink:href="#g3" y="1768"/><rect x="0" y="1785" width="64" height="17" fill="#262626"/><rect x="64" y="1785" width="8" height="17" fill="#3a3a3a"/><rect x="72" y="1785" width="728" height="17" fill="#262626"/><use xlink:href="#g4" y="1785"/><rect x="0" y="1802" width="800" height="17" fill="#3a3a3a"/><use xlink:href="#g5" y="1802"/><rect x="0" y="1819" width="800" height="17" fill="#262626"/><use xlink:href="#g6" y="1819"/><rect x="0" y="1836" width="800" height="17" fill="#262626"/><use xlink:href="#g6" y="1836"/><rect x="0" y="1853" width="800" height="17" fill="#262626"/><use xlink:href="#g6" y="1853"/><rect x="0" y="1870" width="800" height="17" fill="#262626"/><use xlink:href="#g6" y="1870"/><rect x="0" y="1887" width="800" height="17" fill="#262626"/><use xlink:href="#g6" y="1887"/><rect x="0" y="1904" width="800" height="17" fill="#262626"/><use xlink:href="#g6" y="1904"/><rect x="0" y="1921" width="800" height="17" fill="#262626"/><use xlink:href="#g6" y="1921"/><rect x="0" y="1938" width="800" height="17" fill="#262626"/><use xlink:href="#g6" y="1938"/><rect x="0" y="1955" width="800" height="17" fill="#262626"/><use xlink:href="#g6" y="1955"/><rect x="0" y="1972" width="800" height="17" fill="#262626"/><use xlink:href="#g6" y="1972"/><rect x="0" y="1989" width="800" height="17" fill="#262626"/><use xlink:href="#g6" y="1989"/><rect x="0" y="2006" width="800" height="17" fill="#262626"/><use xlink:href="#g6" y="2006"/><rect x="0" y="2023" width="800" height="17" fill="#262626"/><use xlink:href="#g6" y="2023"/><rect x="0" y="2040" width="800" height="17" fill="#262626"/><use xlink:href="#g6" y="2040"/><rect x="0" y="2057" width="800" height="17" fill="#262626"/><use xlink:href="#g6" y="2057"/><rect x="0" y="2074" width="800" height="17" fill="#262626"/><use xlink:href="#g6" y="2074"/><rect x="0" y="2091" width="800" height="17" fill="#262626"/><use xlink:href="#g6" y="2091"/><rect x="0" y="2108" width="800" height="17" fill="#262626"/><use xlink:href="#g6" y="2108"/><rect x="0" y="2125" width="800" height="17" fill="#262626"/><use xlink:href="#g6" y="2125"/><rect x="0" y="2142" width="800" height="17" fill="#262626"/><use xlink:href="#g6" y="2142"/><rect x="0" y="2159" width="800" height="17" fill="#4e4e4e"/><use xlink:href="#g7" y="2159"/><rect x="0" y="2176" width="8" height="17" fill="#262626"/><rect x="8" y="2176" width="8" height="17" fill="#ffd7af"/><rect x="16" y="2176" width="784" height="17" fill="#262626"/><use xlink:href="#g9" y="2176"/></g><g><rect x="0" y="2210" width="64" height="17" fill="#262626"/><rect x="64" y="2210" width="8" height="17" fill="#3a3a3a"/><rect x="72" y="2210" width="728" height="17" fill="#262626"/><use xlink:href="#g3" y="2210"/><rect x="0" y="2227" width="64" height="17" fill="#262626"/><rect x="64" y="2227" width="8" height="17" fill="#3a3a3a"/><rect x="72" y="2227" width="728" height="17" fill="#262626"/><use xlink:href="#g4" y="2227"/><rect x="0" y="2244" width="800" height="17" fill="#3a3a3a"/><use xlink:href="#g5" y="2244"/><rect x="0" y="2261" width="800" height="17" fill="#262626"/><use xlink:href="#g6" y="2261"/><rect x="0" y="2278" width="800" height="17" fill="#262626"/><use xlink:href="#g6" y="2278"/><rect x="0" y="2295" width="800" height="17" fill="#262626"/><use xlink:href="#g6" y="2295"/><rect x="0" y="2312" width="800" height="17" fill="#262626"/><use xlink:href="#g6" y="2312"/><rect x="0" y="2329" width="800" height="17" fill="#262626"/><use xlink:href="#g6" y="2329"/><rect x="0" y="2346" width="800" height="17" fill="#262626"/><use xlink:href="#g6" y="2346"/><rect x="0" y="2363" width="800" height="17" fill="#262626"/><use xlink:href="#g6" y="2363"/><rect x="0" y="2380" width="800" height="17" fill="#262626"/><use xlink:href="#g6" y="2380"/><rect x="0" y="2397" width="800" height="17" fill="#262626"/><use xlink:href="#g6" y="2397"/><rect x="0" y="2414" width="800" height="17" fill="#262626"/><use xlink:href="#g6" y="2414"/><rect x="0" y="2431" width="800" height="17" fill="#262626"/><use xlink:href="#g6" y="2431"/><rect x="0" y="2448" width="800" height="17" fill="#262626"/><use xlink:href="#g6" y="2448"/><rect x="0" y="2465" width="800" height="17" fill="#262626"/><use xlink:href="#g6" y="2465"/><rect x="0" y="2482" width="800" height="17" fill="#262626"/><use xlink:href="#g6" y="2482"/><rect x="0" y="2499" width="800" height="17" fill="#262626"/><use xlink:href="#g6" y="2499"/><rect x="0" y="2516" width="800" height="17" fill="#262626"/><use xlink:href="#g6" y="2516"/><rect x="0" y="2533" width="800" height="17" fill="#262626"/><use xlink:href="#g6" y="2533"/><rect x="0" y="2550" width="800" height="17" fill="#262626"/><use xlink:href="#g6" y="2550"/><rect x="0" y="2567" width="800" height="17" fill="#262626"/><use xlink:href="#g6" y="2567"/><rect x="0" y="2584" width="800" height="17" fill="#262626"/><use xlink:href="#g6" y="2584"/><rect x="0" y="2601" width="800" height="17" fill="#4e4e4e"/><use xlink:href="#g7" y="2601"/><rect x="0" y="2618" width="16" height="17" fill="#262626"/><rect x="16" y="2618" width="8" height="17" fill="#ffd7af"/><rect x="24" y="2618" width="776" height="17" fill="#262626"/><use xlink:href="#g10" y="2618"/></g><g><rect x="0" y="2652" width="64" height="17" fill="#262626"/><rect x="64" y="2652" width="8" height="17" fill="#3a3a3a"/><rect x="72" y="2652" width="728" height="17" fill="#262626"/><use xlink:href="#g3" y="2652"/><rect x="0" y="2669" width="64" height="17" fill="#262626"/><rect x="64" y="2669" width="8" height="17" fill="#3a3a3a"/><rect x="72" y="2669" width="728" height="17" fill="#262626"/><use xlink:href="#g4" y="2669"/><rect x="0" y="2686" width="800" height="17" fill="#3a3a3a"/><use xlink:href="#g5" y="2686"/><rect x="0" y="2703" width="800" height="17" fill="#262626"/><use xlink:href="#g6" y="2703"/><rect x="0" y="2720" width="800" height="17" fill="#262626"/><use xlink:href="#g6" y="2720"/><rect x="0" y="2737" width="800" height="17" fill="#262626"/><use xlink:href="#g6" y="2737"/><rect x="0" y="2754" width="800" height="17" fill="#262626"/><use xlink:href="#g6" y="2754"/><rect x="0" y="2771" width="800" height="17" fill="#262626"/><use xlink:href="#g6" y="2771"/><rect x="0" y="2788" width="800" height="17" fill="#262626"/><use xlink:href="#g6" y="2788"/><rect x="0" y="2805" width="800" height="17" fill="#262626"/><use xlink:href="#g6" y="2805"/><rect x="0" y="2822" width="800" height="17" fill="#262626"/><use xlink:href="#g6" y="2822"/><rect x="0" y="2839" width="800" height="17" fill="#262626"/><use xlink:href="#g6" y="2839"/><rect x="0" y="2856" width="800" height="17" fill="#262626"/><use xlink:href="#g6" y="2856"/><rect x="0" y="2873" width="800" height="17" fill="#262626"/><use xlink:href="#g6" y="2873"/><rect x="0" y="2890" width="800" height="17" fill="#262626"/><use xlink:href="#g6" y="2890"/><rect x="0" y="2907" width="800" height="17" fill="#262626"/><use xlink:href="#g6" y="2907"/><rect x="0" y="2924" width="800" height="17" fill="#262626"/><use xlink:href="#g6" y="2924"/><rect x="0" y="2941" width="800" height="17" fill="#262626"/><use xlink:href="#g6" y="2941"/><rect x="0" y="2958" width="800" height="17" fill="#262626"/><use xlink:href="#g6" y="2958"/><rect x="0" y="2975" width="800" height="17" fill="#262626"/><use xlink:href="#g6" y="2975"/><rect x="0" y="2992" width="800" height="17" fill="#262626"/><use xlink:href="#g6" y="2992"/><rect x="0" y="3009" width="800" height="17" fill="#262626"/><use xlink:href="#g6" y="3009"/><rect x="0" y="3026" width="800" height="17" fill="#262626"/><use xlink:href="#g6" y="3026"/><rect x="0" y="3043" width="800" height="17" fill="#4e4e4e"/><use xlink:href="#g7" y="3043"/><rect x="0" y="3060" width="24" height="17" fill="#262626"/><rect x="24" y="3060" width="8" height="17" fill="#ffd7af"/><rect x="32" y="3060" width="768" height="17" fill="#262626"/><use xlink:href="#g11" y="3060"/></g><g><rect x="0" y="3094" width="64" height="17" fill="#262626"/><rect x="64" y="3094" width="8" height="17" fill="#3a3a3a"/><rect x="72" y="3094" width="728" height="17" fill="#262626"/><use xlink:href="#g3" y="3094"/><rect x="0" y="3111" width="64" height="17" fill="#262626"/><rect x="64" y="3111" width="8" height="17" fill="#3a3a3a"/><rect x="72" y="3111" width="728" height="17" fill="#262626"/><use xlink:href="#g4" y="3111"/><rect x="0" y="3128" width="800" height="17" fill="#3a3a3a"/><use xlink:href="#g5" y="3128"/><rect x="0" y="3145" width="800" height="17" fill="#262626"/><use xlink:href="#g6" y="3145"/><rect x="0" y="3162" width="800" height="17" fill="#262626"/><use xlink:href="#g6" y="3162"/><rect x="0" y="3179" width="800" height="17" fill="#262626"/><use xlink:href="#g6" y="3179"/><rect x="0" y="3196" width="800" height="17" fill="#262626"/><use xlink:href="#g6" y="3196"/><rect x="0" y="3213" width="800" height="17" fill="#262626"/><use xlink:href="#g6" y="3213"/><rect x="0" y="3230" width="800" height="17" fill="#262626"/><use xlink:href="#g6" y="3230"/><rect x="0" y="3247" width="800" height="17" fill="#262626"/><use xlink:href="#g6" y="3247"/><rect x="0" y="3264" width="800" height="17" fill="#262626"/><use xlink:href="#g6" y="3264"/><rect x="0" y="3281" width="800" height="17" fill="#262626"/><use xlink:href="#g6" y="3281"/><rect x="0" y="3298" width="800" height="17" fill="#262626"/><use xlink:href="#g6" y="3298"/><rect x="0" y="3315" width="800" height="17" fill="#262626"/><use xlink:href="#g6" y="3315"/><rect x="0" y="3332" width="800" height="17" fill="#262626"/><use xlink:href="#g6" y="3332"/><rect x="0" y="3349" width="800" height="17" fill="#262626"/><use xlink:href="#g6" y="3349"/><rect x="0" y="3366" width="800" height="17" fill="#262626"/><use xlink:href="#g6" y="3366"/><rect x="0" y="3383" width="800" height="17" fill="#262626"/><use xlink:href="#g6" y="3383"/><rect x="0" y="3400" width="800" height="17" fill="#262626"/><use xlink:href="#g6" y="3400"/><rect x="0" y="3417" width="800" height="17" fill="#262626"/><use xlink:href="#g6" y="3417"/><rect x="0" y="3434" width="800" height="17" fill="#262626"/><use xlink:href="#g6" y="3434"/><rect x="0" y="3451" width="800" height="17" fill="#262626"/><use xlink:href="#g6" y="3451"/><rect x="0" y="3468" width="800" height="17" fill="#262626"/><use xlink:href="#g6" y="3468"/><rect x="0" y="3485" width="800" height="17" fill="#4e4e4e"/><use xlink:href="#g7" y="3485"/><rect x="0" y="3502" width="32" height="17" fill="#262626"/><rect x="32" y="3502" width="8" height="17" fill="#ffd7af"/><rect x="40" y="3502" width="760" height="17" fill="#262626"/><use xlink:href="#g12" y="3502"/></g><g><rect x="0" y="3536" width="64" height="17" fill="#262626"/><rect x="64" y="3536" width="8" height="17" fill="#3a3a3a"/><rect x="72" y="3536" width="728" height="17" fill="#262626"/><use xlink:href="#g3" y="3536"/><rect x="0" y="3553" width="64" height="17" fill="#262626"/><rect x="64" y="3553" width="8" height="17" fill="#3a3a3a"/><rect x="72" y="3553" width="728" height="17" fill="#262626"/><use xlink:href="#g4" y="3553"/><rect x="0" y="3570" width="800" height="17" fill="#3a3a3a"/><use xlink:href="#g5" y="3570"/><rect x="0" y="3587" width="800" height="17" fill="#262626"/><use xlink:href="#g6" y="3587"/><rect x="0" y="3604" width="800" height="17" fill="#262626"/><use xlink:href="#g6" y="3604"/><rect x="0" y="3621" width="800" height="17" fill="#262626"/><use xlink:href="#g6" y="3621"/><rect x="0" y="3638" width="800" height="17" fill="#262626"/><use xlink:href="#g6" y="3638"/><rect x="0" y="3655" width="800" height="17" fill="#262626"/><use xlink:href="#g6" y="3655"/><rect x="0" y="3672" width="800" height="17" fill="#262626"/><use xlink:href="#g6" y="3672"/><rect x="0" y="3689" width="800" height="17" fill="#262626"/><use xlink:href="#g6" y="3689"/><rect x="0" y="3706" width="800" height="17" fill="#262626"/><use xlink:href="#g6" y="3706"/><rect x="0" y="3723" width="800" height="17" fill="#262626"/><use xlink:href="#g6" y="3723"/><rect x="0" y="3740" width="800" height="17" fill="#262626"/><use xlink:href="#g6" y="3740"/><rect x="0" y="3757" width="800" height="17" fill="#262626"/><use xlink:href="#g6" y="3757"/><rect x="0" y="3774" width="800" height="17" fill="#262626"/><use xlink:href="#g6" y="3774"/><rect x="0" y="3791" width="800" height="17" fill="#262626"/><use xlink:href="#g6" y="3791"/><rect x="0" y="3808" width="800" height="17" fill="#262626"/><use xlink:href="#g6" y="3808"/><rect x="0" y="3825" width="800" height="17" fill="#262626"/><use xlink:href="#g6" y="3825"/><rect x="0" y="3842" width="800" height="17" fill="#262626"/><use xlink:href="#g6" y="3842"/><rect x="0" y="3859" width="800" height="17" fill="#262626"/><use xlink:href="#g6" y="3859"/><rect x="0" y="3876" width="800" height="17" fill="#262626"/><use xlink:href="#g6" y="3876"/><rect x="0" y="3893" width="800" height="17" fill="#262626"/><use xlink:href="#g6" y="3893"/><rect x="0" y="3910" width="800" height="17" fill="#262626"/><use xlink:href="#g6" y="3910"/><rect x="0" y="3927" width="800" height="17" fill="#4e4e4e"/><use xlink:href="#g7" y="3927"/><rect x="0" y="3944" width="40" height="17" fill="#262626"/><rect x="40" y="3944" width="8" height="17" fill="#ffd7af"/><rect x="48" y="3944" width="752" height="17" fill="#262626"/><use xlink:href="#g13" y="3944"/></g><g><rect x="0" y="3978" width="64" height="17" fill="#262626"/><rect x="64" y="3978" width="8" height="17" fill="#3a3a3a"/><rect x="72" y="3978" width="728" height="17" fill="#262626"/><use xlink:href="#g3" y="3978"/><rect x="0" y="3995" width="64" height="17" fill="#262626"/><rect x="64" y="3995" width="8" height="17" fill="#3a3a3a"/><rect x="72" y="3995" width="728" height="17" fill="#262626"/><use xlink:href="#g4" y="3995"/><rect x="0" y="4012" width="800" height="17" fill="#3a3a3a"/><use xlink:href="#g5" y="4012"/><rect x="0" y="4029" width="800" height="17" fill="#262626"/><use xlink:href="#g6" y="4029"/><rect x="0" y="4046" width="800" height="17" fill="#262626"/><use xlink:href="#g6" y="4046"/><rect x="0" y="4063" width="800" height="17" fill="#262626"/><use xlink:href="#g6" y="4063"/><rect x="0" y="4080" width="800" height="17" fill="#262626"/><use xlink:href="#g6" y="4080"/><rect x="0" y="4097" width="800" height="17" fill="#262626"/><use xlink:href="#g6" y="4097"/><rect x="0" y="4114" width="800" height="17" fill="#262626"/><use xlink:href="#g6" y="4114"/><rect x="0" y="4131" width="800" height="17" fill="#262626"/><use xlink:href="#g6" y="4131"/><rect x="0" y="4148" width="800" height="17" fill="#262626"/><use xlink:href="#g6" y="4148"/><rect x="0" y="4165" width="800" height="17" fill="#262626"/><use xlink:href="#g6" y="4165"/><rect x="0" y="4182" width="800" height="17" fill="#262626"/><use xlink:href="#g6" y="4182"/><rect x="0" y="4199" width="800" height="17" fill="#262626"/><use xlink:href="#g6" y="4199"/><rect x="0" y="4216" width="800" height="17" fill="#262626"/><use xlink:href="#g6" y="4216"/><rect x="0" y="4233" width="800" height="17" fill="#262626"/><use xlink:href="#g6" y="4233"/><rect x="0" y="4250" width="800" height="17" fill="#262626"/><use xlink:href="#g6" y="4250"/><rect x="0" y="4267" width="800" height="17" fill="#262626"/><use xlink:href="#g6" y="4267"/><rect x="0" y="4284" width="800" height="17" fill="#262626"/><use xlink:href="#g6" y="4284"/><rect x="0" y="4301" width="800" height="17" fill="#262626"/><use xlink:href="#g6" y="4301"/><rect x="0" y="4318" width="800" height="17" fill="#262626"/><use xlink:href="#g6" y="4318"/><rect x="0" y="4335" width="800" height="17" fill="#262626"/><use xlink:href="#g6" y="4335"/><rect x="0" y="4352" width="800" height="17" fill="#262626"/><use xlink:href="#g6" y="4352"/><rect x="0" y="4369" width="800" height="17" fill="#4e4e4e"/><use xlink:href="#g7" y="4369"/><rect x="0" y="4386" width="72" height="17" fill="#262626"/><rect x="72" y="4386" width="8" height="17" fill="#ffd7af"/><rect x="80" y="4386" width="720" height="17" fill="#262626"/><use xlink:href="#g14" y="4386"/></g><g><rect x="0" y="4420" width="64" height="17" fill="#262626"/><rect x="64" y="4420" width="8" height="17" fill="#3a3a3a"/><rect x="72" y="4420" width="728" height="17" fill="#262626"/><use xlink:href="#g3" y="4420"/><rect x="0" y="4437" width="64" height="17" fill="#262626"/><rect x="64" y="4437" width="8" height="17" fill="#3a3a3a"/><rect x="72" y="4437" width="64" height="17" fill="#262626"/><rect x="136" y="4437" width="504" height="17" fill="#4e4e4e"/><rect x="640" y="4437" width="160" height="17" fill="#262626"/><use xlink:href="#g15" y="4437"/><rect x="0" y="4454" width="136" height="17" fill="#3a3a3a"/><rect x="136" y="4454" width="504" height="17" fill="#4e4e4e"/><rect x="640" y="4454" width="160" height="17" fill="#3a3a3a"/><use xlink:href="#g16" y="4454"/><rect x="0" y="4471" width="136" height="17" fill="#262626"/><rect x="136" y="4471" width="504" height="17" fill="#4e4e4e"/><rect x="640" y="4471" width="160" height="17" fill="#262626"/><use xlink:href="#g17" y="4471"/><rect x="0" y="4488" width="136" height="17" fill="#262626"/><rect x="136" y="4488" width="504" height="17" fill="#4e4e4e"/><rect x="640" y="4488" width="160" height="17" fill="#262626"/><use xlink:href="#g18" y="4488"/><rect x="0" y="4505" width="136" height="17" fill="#262626"/><rect x="136" y="4505" width="504" height="17" fill="#4e4e4e"/><rect x="640" y="4505" width="160" height="17" fill="#262626"/><use xlink:href="#g17" y="4505"/><rect x="0" y="4522" width="136" height="17" fill="#262626"/><rect x="136" y="4522" width="504" height="17" fill="#4e4e4e"/><rect x="640" y="4522" width="160" height="17" fill="#262626"/><use xlink:href="#g19" y="4522"/><rect x="0" y="4539" width="136" height="17" fill="#262626"/><rect x="136" y="4539" width="504" height="17" fill="#4e4e4e"/><rect x="640" y="4539" width="160" height="17" fill="#262626"/><use xlink:href="#g20" y="4539"/><rect x="0" y="4556" width="136" height="17" fill="#262626"/><rect x="136" y="4556" width="504" height="17" fill="#4e4e4e"/><rect x="640" y="4556" width="160" height="17" fill="#262626"/><use xlink:href="#g21" y="4556"/><rect x="0" y="4573" width="136" height="17" fill="#262626"/><rect x="136" y="4573" width="504" height="17" fill="#4e4e4e"/><rect x="640" y="4573" width="160" height="17" fill="#262626"/><use xlink:href="#g17" y="4573"/><rect x="0" y="4590" width="136" height="17" fill="#262626"/><rect x="136" y="4590" width="504" height="17" fill="#4e4e4e"/><rect x="640" y="4590" width="160" height="17" fill="#262626"/><use xlink:href="#g17" y="4590"/><rect x="0" y="4607" width="136" height="17" fill="#262626"/><rect x="136" y="4607" width="504" height="17" fill="#4e4e4e"/><rect x="640" y="4607" width="160" height="17" fill="#262626"/><use xlink:href="#g17" y="4607"/><rect x="0" y="4624" width="136" height="17" fill="#262626"/><rect x="136" y="4624" width="504" height="17" fill="#4e4e4e"/><rect x="640" y="4624" width="160" height="17" fill="#262626"/><use xlink:href="#g17" y="4624"/><rect x="0" y="4641" width="136" height="17" fill="#262626"/><rect x="136" y="4641" width="504" height="17" fill="#4e4e4e"/><rect x="640" y="4641" width="160" height="17" fill="#262626"/><use xlink:href="#g17" y="4641"/><rect x="0" y="4658" width="136" height="17" fill="#262626"/><rect x="136" y="4658" width="504" height="17" fill="#4e4e4e"/><rect x="640" y="4658" width="160" height="17" fill="#262626"/><use xlink:href="#g22" y="4658"/><rect x="0" y="4675" width="800" height="17" fill="#262626"/><use xlink:href="#g6" y="4675"/><rect x="0" y="4692" width="800" height="17" fill="#262626"/><use xlink:href="#g6" y="4692"/><rect x="0" y="4709" width="800" height="17" fill="#262626"/><use xlink:href="#g6" y="4709"/><rect x="0" y="4726" width="800" height="17" fill="#262626"/><use xlink:href="#g6" y="4726"/><rect x="0" y="4743" width="800" height="17" fill="#262626"/><use xlink:href="#g6" y="4743"/><rect x="0" y="4760" width="800" height="17" fill="#262626"/><use xlink:href="#g6" y="4760"/><rect x="0" y="4777" width="800" height="17" fill="#262626"/><use xlink:href="#g6" y="4777"/><rect x="0" y="4794" width="800" height="17" fill="#262626"/><use xlink:href="#g6" y="4794"/><rect x="0" y="4811" width="800" height="17" fill="#4e4e4e"/><use xlink:href="#g7" y="4811"/><rect x="0" y="4828" width="800" height="17" fill="#262626"/><use xlink:href="#g23" y="4828"/></g><g><rect x="0" y="4862" width="64" height="17" fill="#262626"/><rect x="64" y="4862" width="8" height="17" fill="#3a3a3a"/><rect x="72" y="4862" width="728" height="17" fill="#262626"/><use xlink:href="#g3" y="4862"/><rect x="0" y="4879" width="64" height="17" fill="#262626"/><rect x="64" y="4879" width="8" height="17" fill="#3a3a3a"/><rect x="72" y="4879" width="64" height="17" fill="#262626"/><rect x="136" y="4879" width="504" height="17" fill="#4e4e4e"/><rect x="640" y="4879" width="160" height="17" fill="#262626"/><use xlink:href="#g15" y="4879"/><rect x="0" y="4896" width="136" height="17" fill="#3a3a3a"/><rect x="136" y="4896" width="504" height="17" fill="#4e4e4e"/><rect x="640" y="4896" width="160" height="17" fill="#3a3a3a"/><use xlink:href="#g16" y="4896"/><rect x="0" y="4913" width="136" height="17" fill="#262626"/><rect x="136" y="4913" width="504" height="17" fill="#4e4e4e"/><rect x="640" y="4913" width="160" height="17" fill="#262626"/><use xlink:href="#g17" y="4913"/><rect x="0" y="4930" width="136" height="17" fill="#262626"/><rect x="136" y="4930" width="504" height="17" fill="#4e4e4e"/><rect x="640" y="4930" width="160" height="17" fill="#262626"/><use xlink:href="#g18" y="4930"/><rect x="0" y="4947" width="136" height="17" fill="#262626"/><rect x="136" y="4947" width="504" height="17" fill="#4e4e4e"/><rect x="640" y="4947" width="160" height="17" fill="#262626"/><use xlink:href="#g17" y="4947"/><rect x="0" y="4964" width="136" height="17" fill="#262626"/><rect x="136" y="4964" width="504" height="17" fill="#4e4e4e"/><rect x="640" y="4964" width="160" height="17" fill="#262626"/><use xlink:href="#g19" y="4964"/><rect x="0" y="4981" width="136" height="17" fill="#262626"/><rect x="136" y="4981" width="504" height="17" fill="#4e4e4e"/><rect x="640" y="4981" width="160" height="17" fill="#262626"/><use xlink:href="#g20" y="4981"/><rect x="0" y="4998" width="136" height="17" fill="#262626"/><rect x="136" y="4998" width="504" height="17" fill="#4e4e4e"/><rect x="640" y="4998" width="160" height="17" fill="#262626"/><use xlink:href="#g24" y="4998"/><rect x="0" y="5015" width="136" height="17" fill="#262626"/><rect x="136" y="5015" width="504" height="17" fill="#4e4e4e"/><rect x="640" y="5015" width="160" height="17" fill="#262626"/><use xlink:href="#g25" y="5015"/><rect x="0" y="5032" width="136" height="17" fill="#262626"/><rect x="136" y="5032" width="504" height="17" fill="#4e4e4e"/><rect x="640" y="5032" width="160" height="17" fill="#262626"/><use xlink:href="#g17" y="5032"/><rect x="0" y="5049" width="136" height="17" fill="#262626"/><rect x="136" y="5049" width="504" height="17" fill="#4e4e4e"/><rect x="640" y="5049" width="160" height="17" fill="#262626"/><use xlink:href="#g26" y="5049"/><rect x="0" y="5066" width="136" height="17" fill="#262626"/><rect x="136" y="5066" width="504" height="17" fill="#4e4e4e"/><rect x="640" y="5066" width="160" height="17" fill="#262626"/><use xlink:href="#g17" y="5066"/><rect x="0" y="5083" width="136" height="17" fill="#262626"/><rect x="136" y="5083" width="504" height="17" fill="#4e4e4e"/><rect x="640" y="5083" width="160" height="17" fill="#262626"/><use xlink:href="#g27" y="5083"/><rect x="0" y="5100" width="136" height="17" fill="#262626"/><rect x="136" y="5100" width="504" height="17" fill="#4e4e4e"/><rect x="640" y="5100" width="160" height="17" fill="#262626"/><use xlink:href="#g22" y="5100"/><rect x="0" y="5117" width="800" height="17" fill="#262626"/><use xlink:href="#g6" y="5117"/><rect x="0" y="5134" width="800" height="17" fill="#262626"/><use xlink:href="#g6" y="5134"/><rect x="0" y="5151" width="800" height="17" fill="#262626"/><use xlink:href="#g6" y="5151"/><rect x="0" y="5168" width="800" height="17" fill="#262626"/><use xlink:href="#g6" y="5168"/><rect x="0" y="5185" width="800" height="17" fill="#262626"/><use xlink:href="#g6" y="5185"/><rect x="0" y="5202" width="800" height="17" fill="#262626"/><use xlink:href="#g6" y="5202"/><rect x="0" y="5219" width="800" height="17" fill="#262626"/><use xlink:href="#g6" y="5219"/><rect x="0" y="5236" width="800" height="17" fill="#262626"/><use xlink:href="#g6" y="5236"/><rect x="0" y="5253" width="800" height="17" fill="#4e4e4e"/><use xlink:href="#g7" y="5253"/><rect x="0" y="5270" width="8" height="17" fill="#d7d7af"/><rect x="8" y="5270" width="792" height="17" fill="#262626"/><use xlink:href="#g28" y="5270"/></g><g><rect x="0" y="5304" width="64" height="17" fill="#262626"/><rect x="64" y="5304" width="8" height="17" fill="#3a3a3a"/><rect x="72" y="5304" width="728" height="17" fill="#262626"/><use xlink:href="#g3" y="5304"/><rect x="0" y="5321" width="64" height="17" fill="#262626"/><rect x="64" y="5321" width="8" height="17" fill="#3a3a3a"/><rect x="72" y="5321" width="728" height="17" fill="#262626"/><use xlink:href="#g4" y="5321"/><rect x="0" y="5338" width="64" height="17" fill="#3a3a3a"/><rect x="64" y="5338" width="8" height="17" fill="#ffd7af"/><rect x="72" y="5338" width="728" height="17" fill="#3a3a3a"/><use xlink:href="#g29" y="5338"/><rect x="0" y="5355" width="800" height="17" fill="#262626"/><use xlink:href="#g6" y="5355"/><rect x="0" y="5372" width="800" height="17" fill="#262626"/><use xlink:href="#g6" y="5372"/><rect x="0" y="5389" width="800" height="17" fill="#262626"/><use xlink:href="#g6" y="5389"/><rect x="0" y="5406" width="800" height="17" fill="#262626"/><use xlink:href="#g6" y="5406"/><rect x="0" y="5423" width="800" height="17" fill="#262626"/><use xlink:href="#g6" y="5423"/><rect x="0" y="5440" width="800" height="17" fill="#262626"/><use xlink:href="#g6" y="5440"/><rect x="0" y="5457" width="800" height="17" fill="#262626"/><use xlink:href="#g6" y="5457"/><rect x="0" y="5474" width="800" height="17" fill="#262626"/><use xlink:href="#g6" y="5474"/><rect x="0" y="5491" width="800" height="17" fill="#262626"/><use xlink:href="#g6" y="5491"/><rect x="0" y="5508" width="800" height="17" fill="#262626"/><use xlink:href="#g6" y="5508"/><rect x="0" y="5525" width="800" height="17" fill="#262626"/><use xlink:href="#g6" y="5525"/><rect x="0" y="5542" width="800" height="17" fill="#262626"/><use xlink:href="#g6" y="5542"/><rect x="0" y="5559" width="800" height="17" fill="#262626"/><use xlink:href="#g6" y="5559"/><rect x="0" y="5576" width="800" height="17" fill="#262626"/><use xlink:href="#g6" y="5576"/><rect x="0" y="5593" width="800" height="17" fill="#262626"/><use xlink:href="#g6" y="5593"/><rect x="0" y="5610" width="800" height="17" fill="#262626"/><use xlink:href="#g6" y="5610"/><rect x="0" y="5627" width="800" height="17" fill="#262626"/><use xlink:href="#g6" y="5627"/><rect x="0" y="5644" width="800" height="17" fill="#262626"/><use xlink:href="#g6" y="5644"/><rect x="0" y="5661" width="800" height="17" fill="#262626"/><use xlink:href="#g6" y="5661"/><rect x="0" y="5678" width="800" height="17" fill="#262626"/><use xlink:href="#g6" y="5678"/><rect x="0" y="5695" width="800" height="17" fill="#4e4e4e"/><use xlink:href="#g7" y="5695"/><rect x="0" y="5712" width="800" height="17" fill="#262626"/><use xlink:href="#g30" y="5712"/></g><g><rect x="0" y="5746" width="64" height="17" fill="#262626"/><rect x="64" y="5746" width="8" height="17" fill="#3a3a3a"/><rect x="72" y="5746" width="728" height="17" fill="#262626"/><use xlink:href="#g3" y="5746"/><rect x="0" y="5763" width="64" height="17" fill="#262626"/><rect x="64" y="5763" width="8" height="17" fill="#3a3a3a"/><rect x="72" y="5763" width="728" height="17" fill="#262626"/><use xlink:href="#g4" y="5763"/><rect x="0" y="5780" width="800" height="17" fill="#3a3a3a"/><use xlink:href="#g5" y="5780"/><rect x="0" y="5797" width="800" height="17" fill="#262626"/><use xlink:href="#g6" y="5797"/><rect x="0" y="5814" width="800" height="17" fill="#262626"/><use xlink:href="#g6" y="5814"/><rect x="0" y="5831" width="800" height="17" fill="#262626"/><use xlink:href="#g6" y="5831"/><rect x="0" y="5848" width="800" height="17" fill="#262626"/><use xlink:href="#g6" y="5848"/><rect x="0" y="5865" width="800" height="17" fill="#262626"/><use xlink:href="#g6" y="5865"/><rect x="0" y="5882" width="800" height="17" fill="#262626"/><use xlink:href="#g6" y="5882"/><rect x="0" y="5899" width="800" height="17" fill="#262626"/><use xlink:href="#g6" y="5899"/><rect x="0" y="5916" width="800" height="17" fill="#262626"/><use xlink:href="#g6" y="5916"/><rect x="0" y="5933" width="800" height="17" fill="#262626"/><use xlink:href="#g6" y="5933"/><rect x="0" y="5950" width="800" height="17" fill="#262626"/><use xlink:href="#g6" y="5950"/><rect x="0" y="5967" width="800" height="17" fill="#262626"/><use xlink:href="#g6" y="5967"/><rect x="0" y="5984" width="800" height="17" fill="#262626"/><use xlink:href="#g6" y="5984"/><rect x="0" y="6001" width="800" height="17" fill="#262626"/><use xlink:href="#g6" y="6001"/><rect x="0" y="6018" width="800" height="17" fill="#262626"/><use xlink:href="#g6" y="6018"/><rect x="0" y="6035" width="800" height="17" fill="#262626"/><use xlink:href="#g6" y="6035"/><rect x="0" y="6052" width="800" height="17" fill="#262626"/><use xlink:href="#g6" y="6052"/><rect x="0" y="6069" width="800" height="17" fill="#262626"/><use xlink:href="#g6" y="6069"/><rect x="0" y="6086" width="800" height="17" fill="#262626"/><use xlink:href="#g6" y="6086"/><rect x="0" y="6103" width="800" height="17" fill="#262626"/><use xlink:href="#g6" y="6103"/><rect x="0" y="6120" width="800" height="17" fill="#262626"/><use xlink:href="#g6" y="6120"/><rect x="0" y="6137" width="800" height="17" fill="#4e4e4e"/><use xlink:href="#g7" y="6137"/><rect x="0" y="6154" width="8" height="17" class="foreground"/><rect x="8" y="6154" width="792" height="17" fill="#262626"/><use xlink:href="#g31" y="6154"/></g></g></svg>
</svg>